# xmcd CD database file
# Copyright (C) 1995-1998 Ti Kan
#
# Track frame offsets:
#	150
#	28232
#	77538
#	111551
#	150605
#	182077
#	207986
#	232714
#	269627
#
# Disc length: 4375 seconds
#
# Revision: 1
# Processed by: cddbd v1.4PL0 Copyright (c) Steve Scherf et al.
# Submitted via: CDex 1.30
#
DISCID=75111509
DTITLE=Buckwheat Zydeco - Down Home Live
DYEAR=2001
DGENRE=Blues
TTITLE0=Soul Serenade (Bucks Intro)
TTITLE1=What You Gonna Do?
TTITLE2=Hard To Stop
TTITLE3=Walking To New Orleans
TTITLE4=Trouble
TTITLE5=Make A Change
TTITLE6=Put It In The Pocket
TTITLE7=Out On The Town
TTITLE8=Beast Of Burden
EXTD=\nYEAR: 2001  ID3G:   0
EXTT0=
EXTT1=
EXTT2=
EXTT3=
EXTT4=
EXTT5=
EXTT6=
EXTT7=
EXTT8=
PLAYORDER=
